<?xml version="1.0" standalone="no"?>
<!DOCTYPE svg PUBLIC "-//W3C//DTD SVG 20010904//EN"
 "http://www.w3.org/TR/2001/REC-SVG-20010904/DTD/svg10.dtd">
<svg version="1.0" xmlns="http://www.w3.org/2000/svg"
 width="305.000000pt" height="305.000000pt" viewBox="0 0 305.000000 305.000000"
 preserveAspectRatio="xMidYMid meet">
<metadata>
Created by potrace 1.14, written by Peter Selinger 2001-2017
</metadata>
<g transform="translate(0.000000,305.000000) scale(0.100000,-0.100000)"
fill="#000000" stroke="none">
<path d="M677 1879 c-87 -20 -184 -93 -231 -172 -64 -111 -75 -287 -23 -400
127 -278 528 -304 681 -44 64 111 75 287 23 400 -77 168 -267 259 -450 216z
m329 -173 c47 -47 47 -95 0 -142 -29 -29 -41 -34 -81 -34 -40 0 -52 5 -81 34
-26 26 -34 42 -34 71 0 29 8 45 34 71 29 29 41 34 81 34 40 0 52 -5 81 -34z"/>
<path d="M2177 1879 c-87 -20 -184 -93 -231 -172 -64 -111 -75 -287 -23 -400
127 -278 528 -304 681 -44 64 111 75 287 23 400 -77 168 -267 259 -450 216z
m299 -173 c26 -26 34 -42 34 -71 0 -29 -8 -45 -34 -71 -29 -29 -41 -34 -81
-34 -40 0 -52 5 -81 34 -47 47 -47 95 0 142 29 29 41 34 81 34 40 0 52 -5 81
-34z"/>
<path d="M1172 828 c-15 -15 -15 -51 0 -66 17 -17 689 -17 706 0 15 15 15 51
0 66 -17 17 -689 17 -706 0z"/>
</g>
</svg>
